<?xml version="1.0" encoding="utf-8"?>
<!-- Generator: Adobe Illustrator 26.0.1, SVG Export Plug-In . SVG Version: 6.00 Build 0)  -->
<svg version="1.1" id="Layer_1" xmlns="http://www.w3.org/2000/svg" xmlns:xlink="http://www.w3.org/1999/xlink" x="0px" y="0px"
	 viewBox="0 0 410.42 174.22" style="enable-background:new 0 0 410.42 174.22;" xml:space="preserve">
<style type="text/css">
	.st0{fill:#FFFFFF;}
	.st1{fill:#1877F2;}
	.st2{fill:#121212;}
	.st3{fill:#E4E6EB;}
	.st4{fill:#2A2A2A;}
</style>
<g>
	<g>
		<g>
			<path class="st2" d="M137.23,33.71c-2.25,7.7-7.53,14.37-14.14,18.82c-0.87,0.59-1.8,1.09-2.69,1.64
				c-7.76,4.89-17.25,8.66-26.12,11.25c-5.56,1.62-19.36,4.15-22.24,9.44c-1.18,2.17-0.52,3.27-0.23,5.39
				c0.16,1.18-2.18,3.05-3.08,2.68c-0.21-0.09-1.17-1.2-1.51-1.48c-4.88-4.02-9.73-1.31-12.84,3.24l-11.91,3.39
				c-2.64-1.45-4.29,0.59-3.1,3.22c1.02,2.25,1.53,0.07,2.59,0.38c0.87,0.26,0.38,3.49,0.02,4.18c-2.11-0.64-4.1-0.91-6.29-0.49
				c-0.54,0.1-1.4,0.6-1.83,0.36c-0.58-0.34-1.04-1.3-1.02-1.97c0.03-1.04,1.1-1.83,1.2-2.34c0.04-0.21-0.51-1.62-0.52-2.14
				c-0.02-0.7,0.37-1.89,0.9-2.35c0.45-0.4,2.68-0.56,3.47-0.73c1.73-0.37,3.62-0.9,5.21-1.69c0.2-0.1,1.34-0.71,1.4-0.77
				c0.32-0.36-0.01-1-0.01-1.48c0.01-0.32,0.21-1.4,0.4-1.64c0.53-0.64,2.92-1.22,3.73-1.82c0.59-0.44,0.93-0.92,0.53-1.61
				c-0.79-1.38-4.5-2.16-6.05-2.75c-6.67-2.52-12.81-5.32-17.7-10.59c-0.98-1.06-2.17-2.88-3.18-3.72c-1.45-1.21-3.9-2.09-5.52-3.28
				c-5.45-3.99-6.08-9.69-4.93-15.98c0.22-1.19,0.46-2.41,1.07-3.47l0.53,0.03c0.14,0.09,0.12,0.26,0.13,0.41
				c0.23,1.9-0.17,4.24,0.01,6.22c0.31,3.38,2.33,6.82,5.53,8.14c0.4,0.16,1.96,0.81,2.15,0.25l0.13-8.89
				c-0.69-0.91-1.62-1.73-2.33-2.68c-3.65-4.93-4.05-10.87-2.31-16.64c0.59-1.98,2.04-5.48,3.66-6.77c0.15-0.12,1.09-0.87,1.01-0.34
				c-0.04,0.31-1.04,1.84-1.28,2.37c-2.01,4.51-2.75,11.72,0.61,15.77c2.2,2.65,2.4-0.46,3.05-2.09
				c3.45-8.72,11.45-16.75,20.2-20.15c0.62-0.24,2.81-1.32,2.74-0.17c-5.27,2.72-9.35,6.92-12.69,11.74
				c-0.94,1.36-4.38,6.58-4.34,7.97c0.02,0.81,0.57,0.57,1.06,0.4c3.42-1.23,7.82-3.35,11.15-4.96c1.43-0.69,3.53-2.14,4.88-2.56
				c0.24-0.08,0.48-0.17,0.75-0.12l-0.02,0.71c-3.69,3.18-7.49,6.36-11.63,8.96c-4.6,2.89-7.84,3.72-8.75,9.93
				c-1.12,7.67,1.62,15.04,8.37,19.04c4.82,2.85,1.83-1.6,1.15-3.58c-1.35-3.95-1.81-10.63,0.22-14.4c0.26-0.48,0.75-0.84,0.71-0.12
				c-0.13,2.5-0.32,4,0.29,6.53c1.28,5.27,6.47,12.7,10.63,16.18c1.21,1.01,2.61,1.28,4.02,1.94c1.25,0.58,3.68,1.47,2.64,3.23
				l-1.99,1.94c0.76,0.84,2.16,0.17,3.04-0.21c2.18-0.92,5.24-2.87,5.54-5.43c0.27-2.27-1.09-3.49-1.9-5.38
				c-2.12-4.87-2.14-11.61-1.15-16.77c0.35-1.82,0.85-3.95,2.06-5.39c-0.05,0.71-0.29,1.37-0.35,2.09
				c-0.39,5.48,2.84,18.53,8.14,21.25c4.04,2.07,8.3-2.38,10.68-5.27c3.86-4.69,7.74-13.72,8.25-19.78
				c0.07-0.84-0.15-3.84,0.14-4.29c0.16-0.24,0.78-0.27,0.93-0.06c0.06,0.08,0.11,0.57,0.14,0.73c0.89,4.91,1.21,12.88-0.38,17.59
				c-0.34,1-2.47,4.92-0.11,4.63c2.82-0.34,11.72-3.81,13.84-5.66c3.68-3.19,6.51-12.61,7.56-17.35c0.34-1.52,0.47-3.31,0.83-4.72
				c0.39-1.53,1.1-1.02,1.39,0.24c0.59,2.57,0.21,7.68-0.12,10.37c-0.21,1.73-1.25,5.21-1.05,6.64c0.22,1.64,2.63,0.76,3.65,0.29
				c6.46-3.01,9.82-10.28,8.91-17.18c-1.85-14.06-17.18-14.51-27.32-19.52c-0.33-0.16-0.8-0.31-0.68-0.74l20.58,3.59
				c0.56-0.26-0.13-1.32-0.35-1.69c-1.22-2.09-3.81-4.18-5.76-5.61c-2.47-1.81-5.14-3.38-7.84-4.82l0.13-0.34
				c4.29,0.18,8.61,1.95,12.1,4.43c3.94,2.8,6.88,6.39,9.49,10.41c0.94,1.45,1.3,2.72,2.8,3.84c1.15,0.85,1.51,0.35,2.21-0.74
				c2.7-4.24,0.69-12.05-0.73-16.58c-0.45-1.44-1.02-2.83-1.49-4.26c5.98,5.83,7.73,14.41,6.33,22.5c-0.44,2.55-1.29,5-2.2,7.41
				c-1.14,3.02-0.61,6.03-1.16,9.13c-0.09,0.48-0.35,0.96-0.46,1.43c-0.15,0.65-0.54,1.88,0.58,1.39c0.39-0.17,2.06-1.5,2.47-1.86
				C133.92,38.19,135.49,35.85,137.23,33.71"/>
			<path class="st2" d="M93.9,77.98c-0.08,2.12-1.25,4.06-2.46,5.73c-3.02,4.16-7.55,8.32-13.14,7.36c-0.95-0.16-3.24-1.03-4.03-0.7
				c-0.48,0.2-0.46,0.89-0.39,1.34c5.52,13.34,12.02,24.92,12.58,39.81c0.53,14.1-6.55,27.21-14.15,38.52
				c-4.31-10.98-12.61-20.49-23.4-25.48c-14.1-6.51-30.17-4.99-44.63-0.52c-0.06-0.26,0.14-0.32,0.27-0.47
				c3.6-4.37,10.85-9.31,16.02-11.6c5.18-2.29,12.64-3.94,18.27-2.92c0.58,0.11,3.36,2.53,4.23,3.09c0.23,0.14,1.71,1.06,1.83,0.94
				l-1.15-1.62c-2.37-3.93-1.41-8.5,0.68-12.33c0.73-1.33,1.73-2.86,2.78-3.92c-0.46,3.31,1.41,6.82,3.52,9.27
				c4.03,4.67,9.64,6.07,13.6,10.9c4.2,5.11,5.52,10.03,6.97,16.32c0.05,0.21-0.09,0.24,0.27,0.2c7.13-10.48,5.18-23.05-1.92-32.94
				c-6.08-8.47-18.5-14.57-28.65-16.17c-1.47-0.23-2.99-0.26-4.42-0.46c-1.78-0.25-2.27-2.76-2.35-4.24
				c0.08-0.43,2.05-0.94,2.49-1.02c1.73-0.28,3.78,0.01,5.41,0.66l0.08,2.16c2.86,0.56,5.7,1.28,8.48,2.14
				c4.21,1.31,12.61,5.38,16.68,3.89c3.15-1.16,2.25-5.37,2.16-7.84c-0.12-3.34,0-8.73,1.66-11.62c2.89-5.04,7.46-6.81,12.95-7.77
				C87.35,78.14,90.64,77.93,93.9,77.98"/>
			<path class="st2" d="M66.54,85.82l-1.46,0.13c0.01-0.91-1.63-2.82-2.38-1.74c-0.76,1.1,0.41,2.75-2.1,1.96
				c-0.74-0.23-0.99-0.78-1.8-0.58c-0.15,0.04-0.28,0.24-0.3,0.24h-2.23c-0.45-0.43,1.69-1.28,1.96-1.49
				c0.69-0.54,0.99-1.29,1.84-1.82c1.82-1.13,3.01-0.51,4.52,0.74C65,83.6,66.87,85.35,66.54,85.82"/>
		</g>
		<path class="st2" d="M211.29,50.1v50.07c0,6.65-6.04,6.42-10.23,6.42h-19.27c-5.43,0-8.22-2.3-10.3-5.25v1.02
			c0.2,2.33-2.78,4.22-6.45,4.22h-17.29v-0.78c0-0.41,0.43-0.79,1.06-0.88c3.32-0.49,3.04-3.26,3.04-3.26V29.74h19.64v0.01h17.02
			c4.32,0,12.02,1.84,15.17,3.88C207.48,36.1,211.29,40,211.29,50.1 M193.71,46.05c0,0,0-12.8-11.95-12.8
			c-9.12,0-10.49,8.14-10.49,16.33v41.27c0,3.26,0.34,5.53,3.61,8.32c1.98,1.69,4.7,2.17,5.84,2.17c1.69,0,4.91,0.02,5.66,0.02
			c1.44,0,3.84-0.03,6.1-2.73c1.13-1.35,1.24-2.96,1.24-5.62C193.71,85,193.71,46.05,193.71,46.05"/>
		<path class="st2" d="M253.67,51.76v-1.53c0-0.54-0.01-0.72-0.01-1.31c0-5.54,3.5-3.3,3.56-9.97c0-3.64-2.26-5.74-9.2-5.74
			c-8.21,0-9.48,2.73-9.67,13.01v18.44h15.39v2.39c0,0.53-0.36,1.1-1.22,1.1l-11.28-0.03c-2.64,0-2.88,2.54-2.9,3.12v11.22
			l0.01-0.02c0,16.65-0.22,20.51,7.89,20.68c6.94,0.14,10.76-2.03,10.7-4.95c0-2.88-3.3-3.77-3.3-7.76c0-0.59,0.01-0.42,0.01-0.96
			v-1.53c0-3.56,2.86-6.62,7.77-6.62h11.05v16.12c0,5.05-3.98,9.14-8.88,9.14h-31.06c-0.21,0.01-0.43,0.02-0.65,0.02h-6.55
			c-3.67,0-6.64-2.97-6.64-6.64v-70.2h44.9c4.91,0,8.88,4.09,8.88,9.14v21.18h-10.01C257.57,60.07,253.67,56.81,253.67,51.76"/>
		<path class="st2" d="M314.07,51.76v-1.53c0-0.54-0.01-0.72-0.01-1.31c0-5.54,3.5-3.3,3.56-9.97c0-3.64-2.26-5.74-9.2-5.74
			c-8.21,0-9.48,2.73-9.67,13.01v18.44h15.39v2.39c0,0.53-0.36,1.1-1.22,1.1l-11.28-0.03c-2.64,0-2.88,2.54-2.9,3.12v11.22
			l0.01-0.02c0,16.65-0.22,20.51,7.89,20.68c6.94,0.14,10.76-2.03,10.7-4.95c0-2.88-3.3-3.77-3.3-7.76c0-0.59,0.01-0.42,0.01-0.96
			v-1.53c0-3.56,2.86-6.62,7.77-6.62h11.05v16.12c0,5.05-3.98,9.14-8.88,9.14h-31.06c-0.21,0.01-0.43,0.02-0.65,0.02h-6.55
			c-3.67,0-6.64-2.97-6.64-6.64v-70.2H324c4.91,0,8.88,4.09,8.88,9.14v21.18h-10.01C317.97,60.07,314.07,56.81,314.07,51.76"/>
		<path class="st2" d="M404.8,105.78v0.78h-4.64l-13.19-0.1c-2.72,0-4.61-1.38-6.17-3.71l-20.39-30.1v29.68
			c0.2,2.33-2.78,4.22-6.45,4.22h-17.29v-0.78c0-0.41,0.43-0.79,1.06-0.89c3.32-0.49,3.04-3.26,3.04-3.26V29.72h37.34
			c3.65,0,7.28,0.96,10.34,3c3.7,2.46,7.39,6.85,7.39,14.54v18.87c0,6.65-5.86,6.42-9.94,6.42h-5.04l18.52,28.66l0.59,0.94
			c0.7,0.92,1.75,2.3,3.76,2.74C404.37,105.03,404.8,105.37,404.8,105.78 M369.27,33.22c-9.49,0-8.85,7.71-8.85,15.93v7.75
			c0,0.71-0.01,1.47,0,2.25v9.2h9.22c1.13,0,1.28,0.02,1.92,0.02c1.4,0,3.73-0.03,5.92-2.74c1.1-1.36,1.32-2.84,1.32-5.52V45.6
			C378.79,45.6,379.65,33.22,369.27,33.22"/>
		<path class="st2" d="M173.72,157.03v0.46h-7.47c-2.19,0-3.96-1.13-3.96-2.52v-0.58c-2.19,2.61-4.78,3.17-7.09,3.17h-7.37
			c-2.66,0-4.2-0.31-4.2-3.14v-13.96h-0.01c0-3.05,0.13-3.38,0.5-5.28c0.37-1.92,1.04-3.87,2.48-5.34c1.89-1.93,4.98-2.77,7.81-2.33
			c2.83,0.43,5.83,1.95,7.42,4.08c0.17,0.22,0.32,0.45,0.46,0.69v-20.6h5.04c2.18,0,3.96,1.55,3.96,3.74v39.15
			c0,0-0.17,1.65,1.81,1.94C173.47,156.56,173.72,156.79,173.72,157.03 M162.29,136.37c0-2.21-1.92-5.05-4.21-5.46
			c-1.5-0.27-3.54-0.06-4.74,2.2c-0.48,0.9-0.68,2.61-0.68,4.54c-0.1,7.29-0.04,12.84-0.04,14.48c0,2.14,2.14,2.37,3.93,2.28
			c0.62-0.03,0.33,0,0.33,0c3.19,0,5.41-2.46,5.41-3.01V136.37z"/>
		<path class="st2" d="M197.81,134.67c-0.1,1.06-0.26,2.87-1.76,4.09c-0.13,0.11-2.11,1.67-4.3,0.82c-0.15-0.06-1.87-0.8-2.33-2.45
			c-0.32-1.14-0.03-2.45,0.95-3.58c0.18-0.21,0.29-0.38,0.37-0.56c0.04-0.09,0.21-0.49,0.17-0.98c-0.08-0.95-0.92-1.51-0.97-1.55
			c-1.07-0.69-2.45-0.04-2.53,0c-2.21,1.09-2.29,4.77-2.31,5.28c0,0.01,0,0.12,0,0.34v18.48c0,0-0.17,1.65,1.84,1.94
			c0.38,0.06,0.64,0.28,0.64,0.53v0.46h-7.61c-2.23,0-4.03,0-4.03-4.84v-20.48c0-2.19,1.77-3.96,3.96-3.96h5.19v3
			c0.15-0.45,0.33-0.84,0.58-1.21c0.03-0.05,0.06-0.09,0.1-0.15c1.69-2.44,5.03-2.48,5.32-2.48c1.52,0,2.7,0.51,3.35,0.87
			c0.54,0.29,1.75,0.98,2.6,2.43C198.01,132.33,197.88,133.95,197.81,134.67"/>
		<path class="st2" d="M226.74,139.01v7.68c0,5.29-3.59,9.99-8.75,11.13c-1.44,0.32-3.12,0.51-5.07,0.51
			c-1.95,0-3.63-0.19-5.07-0.51c-5.16-1.14-8.75-5.85-8.75-11.13v-7.68c0-5.29,3.59-9.99,8.75-11.13c1.44-0.32,3.12-0.51,5.07-0.51
			c1.95,0,3.63,0.19,5.07,0.51C223.15,129.02,226.74,133.72,226.74,139.01 M217.75,133.85c0-2.91-2.16-5.28-4.83-5.28
			c-2.67,0-4.83,2.36-4.83,5.28v17.93c0,2.91,2.16,5.28,4.83,5.28c2.67,0,4.83-2.36,4.83-5.28V133.85z"/>
		<path class="st2" d="M259.26,157.08v0.46h-7.47c-2.19,0-3.96-1.13-3.96-2.52v-14.57c0-1.53-0.06-5.11-0.6-6.54
			c-0.22-0.59-0.53-1.16-0.99-1.6c-1.06-1.03-2.82-1.12-4.13-0.45c-1.32,0.67-2.41,2.56-2.69,4.01c-0.21,1.09-0.26,2.44-0.27,3.9
			v14.84c0,0-0.17,1.65,1.84,1.94c0.38,0.06,0.64,0.28,0.64,0.53v0.46h-7.61c-2.23,0-4.03,0-4.03-4.84v-20.46
			c0-2.19,1.77-3.96,3.96-3.96h5.19v4.29c0.18-0.3,0.36-0.59,0.56-0.88c1.52-2.13,4.11-3.76,6.81-4.2c2.7-0.43,5.65,0.41,7.45,2.34
			c1.38,1.47,2.02,3.41,2.37,5.34c0.35,1.9,0.48,2.23,0.48,5.28v14.16c0,0-0.17,1.65,1.81,1.94
			C259.01,156.61,259.26,156.83,259.26,157.08"/>
		<path class="st2" d="M286.76,149.28c0,0,0.36,9.08-12.65,9.08c-8.3,0-14.03-6.75-14.03-15.53c0-8.66,5.84-15.43,14.13-15.43
			c11.64,0,12.66,6.86,12.66,9.92c0,3.99,0.83,5.58-4.1,5.67c-0.25,0-0.18,0-1.55,0s-11.45,0.36-11.45,6.7v1.69
			c0.1,3.64,1.41,5.69,4.34,5.69c3.5,0,5.01-2.25,5.01-7.47v-4.7h4.67c1.64,0,2.97,0.6,2.97,3.08L286.76,149.28z M269.73,146.04
			c0.07-0.2,0.14-0.33,0.31-0.6c1.29-2.03,2.47-2.59,4.23-3.27c1.36-0.52,2.6-0.82,3.28-0.95c1.04-0.2,1.42-0.53,1.42-2.4v-3.72
			c0-6.88-3.6-6.58-5.22-6.43c-3.37,0.3-3.97,5.47-3.97,7.1C269.78,137.41,269.73,146.04,269.73,146.04"/>
		<path class="st2" d="M313.8,147.43c0,4.63,0.8,10.9-12.49,10.9c-12.03,0-11.77-6.95-11.77-6.95v-3.59
			c-0.01-2.08,1.21-2.58,2.71-2.58h5.12v6.45c0,3.32,1.52,5.42,4.5,5.42c2.8,0,4.13-0.86,4.13-3.92v-8.05
			c0-2.06-3.52-1.95-4.39-1.95h-1.02c-0.16,0-0.32,0-0.47,0.01c-1.51,0.06-10.58,0.05-10.58-5.77c0-3.37,0.17-4.25,1.3-5.83
			c0.28-0.4,0.59-0.79,0.94-1.14c3.59-3.57,8.86-3.13,10.22-3.13c9.57,0,11.83,5.13,11.83,9.1c0,3.97-3.04,5.14-5.6,4.06
			c-2.59-1.09-3.12-4.48-1.29-6.63c0.93-1.1,1.25-1.52,0.8-2.6c-0.73-1.75-3.47-2.7-6.05-2.59c-2.54,0.11-4.32,1.6-4.32,4.28v6.87
			c0,2.09,3.42,1.85,4.37,1.85h1.28C303.01,141.63,313.8,141.14,313.8,147.43"/>
		<path class="st2" d="M346.39,157.08v0.46h-7.47c-2.19,0-3.96-1.13-3.96-2.52v-14.57c0-1.53-0.06-5.11-0.6-6.54
			c-0.22-0.59-0.53-1.16-0.99-1.6c-1.06-1.03-2.82-1.12-4.13-0.45c-1.32,0.67-2.41,2.56-2.69,4.01c-0.2,1.02-0.25,2.27-0.27,3.63
			v15.12c0,0-0.17,1.65,1.84,1.94c0.38,0.06,0.64,0.28,0.64,0.53v0.46h-7.61c-2.23,0-4.03,0-4.03-4.84v-37.24
			c0-2.19,1.77-3.78,3.96-3.78h5.19v20.9c0.18-0.3,0.36-0.59,0.56-0.88c1.52-2.13,4.11-3.76,6.81-4.2c2.7-0.43,5.65,0.41,7.45,2.34
			c1.38,1.47,2.02,3.41,2.37,5.34c0.35,1.9,0.48,2.23,0.48,5.28v14.16c0,0-0.17,1.65,1.81,1.94
			C346.14,156.61,346.39,156.83,346.39,157.08"/>
		<path class="st2" d="M375.41,139.01v7.68c0,5.29-3.59,9.99-8.75,11.13c-1.44,0.32-3.12,0.51-5.07,0.51
			c-1.95,0-3.63-0.19-5.07-0.51c-5.16-1.14-8.75-5.85-8.75-11.13v-7.68c0-5.29,3.59-9.99,8.75-11.13c1.44-0.32,3.12-0.51,5.07-0.51
			c1.95,0,3.63,0.19,5.07,0.51C371.82,129.02,375.41,133.72,375.41,139.01 M366.42,133.85c0-2.91-2.16-5.28-4.83-5.28
			c-2.67,0-4.83,2.36-4.83,5.28v17.93c0,2.91,2.16,5.28,4.83,5.28c2.67,0,4.83-2.36,4.83-5.28V133.85z"/>
		<path class="st2" d="M406.15,140.4h-0.01v14.37c0,2.83-2.57,2.73-4.36,2.73h-7.22c-2.32,0-4.9-0.55-7.09-3.17v17.37
			c0,1.39-1.77,2.52-3.96,2.52h-7.48v-0.46c0-0.25,0.26-0.47,0.63-0.53c1.98-0.29,1.81-1.94,1.81-1.94v-39.15
			c0-2.18,1.77-3.96,3.96-3.96h5.03v4.06c0.15-0.23,0.3-0.46,0.46-0.69c1.59-2.13,4.59-3.64,7.42-4.07
			c2.83-0.43,5.92,0.41,7.81,2.33c1.44,1.46,2.11,3.41,2.48,5.32C406.02,137.03,406.15,137.36,406.15,140.4 M397.11,137.58
			c0-1.93-0.2-3.64-0.68-4.54c-1.19-2.26-3.24-2.48-4.74-2.2c-2.29,0.41-4.21,3.25-4.21,5.46v15.03c0,0.55,2.22,3.01,5.41,3.01
			c0,0-0.29-0.03,0.33,0c1.79,0.09,3.93-0.14,3.93-2.28C397.15,150.43,397.2,144.88,397.11,137.58"/>
	</g>
</g>
</svg>
