<?xml version="1.0" encoding="utf-8"?>
<!-- Generator: Adobe Illustrator 26.0.1, SVG Export Plug-In . SVG Version: 6.00 Build 0)  -->
<svg version="1.1" id="Layer_1" xmlns="http://www.w3.org/2000/svg" xmlns:xlink="http://www.w3.org/1999/xlink" x="0px" y="0px"
	 viewBox="0 0 175.11 175.11" style="enable-background:new 0 0 175.11 175.11;" xml:space="preserve">
<style type="text/css">
	.st0{fill:#FFFFFF;}
	.st1{fill:#1877F2;}
	.st2{fill:#121212;}
	.st3{fill:#E4E6EB;}
	.st4{fill:#2A2A2A;}
</style>
<g>
	<path d="M175.47,82.57v10.64c-0.11,0.5-0.22,1-0.3,1.5c-0.66,4.34-0.95,8.79-2.02,13.02c-7.76,30.61-26.5,51.59-55.95,62.88
		c-5.03,1.93-10.39,2.98-15.8,4.49v-61.62h2c5.61,0,11.22-0.03,16.83,0.02c1.13,0.01,1.56-0.3,1.72-1.48
		c0.56-4.19,1.28-8.36,1.91-12.54c0.57-3.71,1.11-7.43,1.7-11.37h-24.27c0-5.68-0.04-11.17,0.01-16.65
		c0.06-8.14,4.59-12.92,12.73-13.34c3.71-0.19,7.44-0.13,11.16-0.11c1.11,0.01,1.48-0.33,1.47-1.47
		c-0.05-6.29-0.04-12.59-0.01-18.88c0-0.92-0.28-1.32-1.22-1.45c-7.15-0.98-14.31-1.69-21.55-1.39
		c-16.54,0.69-28.59,12.15-29.66,28.67c-0.48,7.47-0.27,14.98-0.37,22.47c-0.01,0.67,0,1.34,0,2.17H51.66v25.37h22.07v61.13
		c-0.51-0.05-0.91-0.07-1.3-0.14c-12.21-2.17-23.57-6.55-33.76-13.62C14.5,144.1,1.34,120.96-0.23,91.58
		c-1.01-18.89,3.86-36.45,14.51-52.13C30.34,15.81,52.77,2.5,81.29,0.28c22.65-1.76,43.15,4.64,60.95,18.86
		c17.31,13.83,27.96,31.77,31.89,53.62C174.71,76.01,175.03,79.3,175.47,82.57z"/>
</g>
</svg>
