<?xml version="1.0" encoding="utf-8"?>
<!-- Generator: Adobe Illustrator 26.0.1, SVG Export Plug-In . SVG Version: 6.00 Build 0)  -->
<svg version="1.1" id="Layer_1" xmlns="http://www.w3.org/2000/svg" xmlns:xlink="http://www.w3.org/1999/xlink" x="0px" y="0px"
	 viewBox="0 0 175.11 175.11" style="enable-background:new 0 0 175.11 175.11;" xml:space="preserve">
<style type="text/css">
	.st0{fill:#FFFFFF;}
	.st1{fill:#1877F2;}
	.st2{fill:#121212;}
	.st3{fill:#E4E6EB;}
	.st4{fill:#2A2A2A;}
</style>
<g>
	<path d="M173.59,72.68c-4.87-26.58-18.99-47.03-42.26-60.66C100.86-5.8,63.56-3.66,35.33,17.47C15.37,32.37,3.39,52.43,0.76,77.35
		c-3.51,32.91,8.28,59.78,34.27,80.23c13.34,10.42,28.72,15.87,45.47,17.23c0.49,0,0.97,0.19,1.56,0.29h10.91
		c3.21-0.49,6.52-0.78,9.74-1.36c20.16-3.6,37-13.15,50.53-28.53c11.59-13.14,18.5-28.53,20.93-45.86c0.29-2.04,0.49-4.19,0.78-6.23
		v-11C174.57,79.01,174.18,75.79,173.59,72.68z M143.21,107.24c0,4.67-0.49,9.44-1.66,13.93c-3.12,12.36-13.05,20.64-25.9,22.2
		c-0.97,0.1-1.95,0.29-3.02,0.29c-8.57,0.29-17.14,0.49-25.71,0.68c-8.57-0.19-17.14-0.29-25.71-0.68
		c-9.64-0.58-18.01-3.99-24.15-11.98c-3.9-5.06-5.84-10.9-6.23-17.23c-1.07-17.92-1.17-35.93,0-53.94
		c1.07-16.16,12.37-27.65,28.63-28.82C70.18,30.91,81.09,31,91.9,30.91c7.5,0,15.09,0.1,22.69,0.68
		c15.77,1.36,27.46,12.85,28.14,28.73C143.41,75.99,143.31,91.66,143.21,107.24z"/>
	<path d="M132.89,63.82c-0.19-5.36-1.36-10.61-4.97-14.9c-4.38-5.26-10.32-7.21-16.75-7.4c-11.68-0.29-23.27-0.39-34.86-0.39
		c-5.65,0-11.39,0.19-17.04,0.78c-8.96,0.87-15.29,6.33-17.43,14.8c-0.68,2.82-1.07,5.74-1.17,8.76
		c-0.19,11.98-0.29,24.05-0.19,36.12c0,4.97,0.19,9.84,0.97,14.71c1.36,8.66,6.43,14.22,15,16.36c3.02,0.68,6.13,0.97,9.15,1.07
		c10.22,0.19,20.45,0.29,30.77,0.19c6.23,0,12.46-0.1,18.69-0.88c8.47-1.07,14.31-5.94,16.65-14.31c0.68-2.53,1.07-5.26,1.17-7.89
		c0.1-7.79,0-15.48,0-23.27C132.89,79.69,133.09,71.8,132.89,63.82z M86.74,116.59c-16.07,0-29.02-13.14-29.02-29.21
		c0.1-15.97,13.14-29.02,29.21-28.92c16.07,0,29.02,13.05,28.92,29.11C115.85,103.74,102.8,116.69,86.74,116.59z M117.21,64.01
		c-3.8,0.1-6.91-2.92-6.91-6.72c0-3.8,3.12-6.91,6.82-6.82c3.7,0,6.72,3.12,6.72,6.82C123.93,60.99,120.91,64.01,117.21,64.01z"/>
	<path d="M105.72,87.48c0,10.42-8.47,18.89-18.89,18.89c-10.32,0.1-18.79-8.37-18.89-18.7c0-10.51,8.28-18.89,18.79-18.99
		C97.16,68.59,105.63,77.06,105.72,87.48z"/>
</g>
</svg>
