<?xml version="1.0" encoding="utf-8"?>
<!-- Generator: Adobe Illustrator 26.0.1, SVG Export Plug-In . SVG Version: 6.00 Build 0)  -->
<svg version="1.1" id="Layer_1" xmlns="http://www.w3.org/2000/svg" xmlns:xlink="http://www.w3.org/1999/xlink" x="0px" y="0px"
	 viewBox="0 0 175.11 175.11" style="enable-background:new 0 0 175.11 175.11;" xml:space="preserve">
<style type="text/css">
	.st0{fill:#FFFFFF;}
	.st1{fill:#1877F2;}
	.st2{fill:#121212;}
	.st3{fill:#E4E6EB;}
	.st4{fill:#2A2A2A;}
</style>
<g>
	<g>
		<g>
			<path class="st1" d="M165.24,94.9H9.87c-4.06,0-7.35-3.29-7.35-7.35v0c0-4.06,3.29-7.35,7.35-7.35h155.38
				c4.06,0,7.35,3.29,7.35,7.35v0C172.59,91.61,169.3,94.9,165.24,94.9z"/>
		</g>
		<g>
			<path class="st1" d="M165.24,141.64H9.87c-4.06,0-7.35-3.29-7.35-7.35v0c0-4.06,3.29-7.35,7.35-7.35h155.38
				c4.06,0,7.35,3.29,7.35,7.35v0C172.59,138.35,169.3,141.64,165.24,141.64z"/>
		</g>
		<g>
			<path class="st1" d="M165.24,48.17H9.87c-4.06,0-7.35-3.29-7.35-7.35v0c0-4.06,3.29-7.35,7.35-7.35h155.38
				c4.06,0,7.35,3.29,7.35,7.35v0C172.59,44.88,169.3,48.17,165.24,48.17z"/>
		</g>
	</g>
</g>
</svg>
