<?xml version="1.0" encoding="utf-8"?>
<!-- Generator: Adobe Illustrator 26.0.1, SVG Export Plug-In . SVG Version: 6.00 Build 0)  -->
<svg version="1.1" id="Layer_1" xmlns="http://www.w3.org/2000/svg" xmlns:xlink="http://www.w3.org/1999/xlink" x="0px" y="0px"
	 viewBox="0 0 175.11 175.11" style="enable-background:new 0 0 175.11 175.11;" xml:space="preserve">
<style type="text/css">
	.st0{fill:#FFFFFF;}
	.st1{fill:#1877F2;}
	.st2{fill:#121212;}
	.st3{fill:#E4E6EB;}
	.st4{fill:#2A2A2A;}
</style>
<g>
	<g>
		<path class="st1" d="M172.65,157.35c-1.08-1.32-2.33-2.49-3.54-3.7c-9.99-10-19.98-19.99-29.98-29.98
			c-0.32-0.32-0.73-0.55-1.18-0.89c1.15-1.71,2.18-3.19,3.15-4.71c18.51-29.03,15.87-66.12-6.89-91.99
			c-13.52-15.37-30.69-23.97-51.16-25.8c-0.44-0.04-0.87-0.19-1.3-0.29h-9.92c-2.97,0.43-5.97,0.78-8.92,1.32
			c-15.64,2.84-29.13,9.86-40.36,21.1C10.57,34.38,3.38,48.83,0.79,65.57C0.47,67.64,0.26,69.73,0,71.82v9.58
			c0.44,3.03,0.74,6.1,1.33,9.1c4.92,24.71,18.38,43.36,40.94,54.45c27.28,13.41,53.88,10.93,79.1-6.08
			c0.28-0.19,0.56-0.39,0.85-0.58c0.09-0.06,0.21-0.07,0.69-0.48c0.39,0.57,0.69,1.21,1.17,1.69c10.62,10.65,21.26,21.3,31.91,31.92
			c4.35,4.34,10.16,4.92,14.7,1.54C175.68,169.23,176.6,162.15,172.65,157.35z M76.83,131.42c-30.17-0.14-54.44-24.45-54.41-54.52
			c0.02-30.15,24.62-54.7,54.62-54.52c30.21,0.18,54.44,24.46,54.41,54.54C131.41,107.09,106.89,131.56,76.83,131.42z"/>
	</g>
</g>
</svg>
